<?xml version="1.0" encoding="UTF-8" standalone="no"?>
<svg
   version="1.0"
   width="752.000000pt"
   height="752.000000pt"
   viewBox="150 150 602 602"
   preserveAspectRatio="xMidYMid meet"
   id="svg2"
   xmlns="http://www.w3.org/2000/svg"
   xmlns:svg="http://www.w3.org/2000/svg">
  <defs
     id="defs2" />
  <g
     transform="matrix(0.1390625,0,0,-0.1390625,-71.874994,976.97297)"
     fill="#bd8d20"
     stroke="none"
     id="g2">
    <path
       d="m 1894,5350 c -12,-5 -29,-19 -38,-32 -15,-20 -16,-159 -16,-1494 V 2352 l 31,-26 31,-26 h 1858 1858 l 31,26 31,26 v 1473 1474 l -24,28 -24,28 -1859,2 c -1034,1 -1868,-2 -1879,-7 z m 406,-270 v -90 h -140 -140 v 90 90 h 140 140 z m 450,0 v -90 h -135 -135 v 90 90 h 135 135 z m 460,0 v -90 h -135 -135 v 90 90 h 135 135 z m 460,0 v -90 h -135 -135 v 90 90 h 135 135 z m 450,0 v -90 h -135 -135 v 90 90 h 135 135 z m 460,0 v -90 h -135 -135 v 90 90 h 135 135 z m 460,0 v -90 h -135 -135 v 90 90 h 135 135 z m 460,0 v -90 h -140 -140 v 90 90 h 140 140 z m -2,-1252 -3,-973 H 3760 2025 l -3,973 -2,972 h 1740 1740 z m -3200,-1250 -3,-93 h -135 -135 l -3,93 -3,92 h 141 141 z m 452,-3 v -96 l -132,3 -133,3 -3,93 -3,92 h 136 135 z m 460,0 v -95 h -135 -135 v 95 95 h 135 135 z m 458,3 -3,-93 -132,-3 -133,-3 v 96 95 h 135 136 z m 452,-3 v -96 l -132,3 -133,3 -3,93 -3,92 h 136 135 z m 460,0 v -95 h -135 -135 v 95 95 h 135 135 z m 458,3 -3,-93 -132,-3 -133,-3 v 96 95 h 135 136 z m 460,0 -3,-93 h -135 -135 l -3,93 -3,92 h 141 141 z"
       id="path1" />
    <path
       d="m 3391,4323 c -19,-10 -44,-31 -55,-46 -20,-28 -21,-39 -21,-450 0,-391 1,-424 18,-449 24,-35 82,-62 121,-55 18,3 186,97 375,209 333,196 345,204 364,247 16,37 17,50 8,81 -6,20 -21,46 -33,57 -13,12 -131,86 -263,164 -476,282 -455,272 -514,242 z"
       id="path2" />
  </g>
</svg>
