<svg id="visual" viewBox="0 0 1920 100" width="1920" height="100" xmlns="http://www.w3.org/2000/svg" xmlns:xlink="http://www.w3.org/1999/xlink" version="1.1"><rect x="0" y="0" width="1920" height="100" fill="#FFFCF7"></rect><path d="M0 63L16 61C32 59 64 55 96 56.7C128 58.3 160 65.7 192 64.5C224 63.3 256 53.7 288 49.3C320 45 352 46 384 43.8C416 41.7 448 36.3 480 32.7C512 29 544 27 576 27.3C608 27.7 640 30.3 672 31C704 31.7 736 30.3 768 30.8C800 31.3 832 33.7 864 39.3C896 45 928 54 960 58.2C992 62.3 1024 61.7 1056 56.8C1088 52 1120 43 1152 40.5C1184 38 1216 42 1248 45.7C1280 49.3 1312 52.7 1344 57.3C1376 62 1408 68 1440 70.7C1472 73.3 1504 72.7 1536 71.7C1568 70.7 1600 69.3 1632 69C1664 68.7 1696 69.3 1728 62.7C1760 56 1792 42 1824 36.7C1856 31.3 1888 34.7 1904 36.3L1920 38L1920 0L1904 0C1888 0 1856 0 1824 0C1792 0 1760 0 1728 0C1696 0 1664 0 1632 0C1600 0 1568 0 1536 0C1504 0 1472 0 1440 0C1408 0 1376 0 1344 0C1312 0 1280 0 1248 0C1216 0 1184 0 1152 0C1120 0 1088 0 1056 0C1024 0 992 0 960 0C928 0 896 0 864 0C832 0 800 0 768 0C736 0 704 0 672 0C640 0 608 0 576 0C544 0 512 0 480 0C448 0 416 0 384 0C352 0 320 0 288 0C256 0 224 0 192 0C160 0 128 0 96 0C64 0 32 0 16 0L0 0Z" fill="#DDE9F3" stroke-linecap="round" stroke-linejoin="miter"></path></svg>