<svg id="visual" viewBox="0 0 1920 100" width="1920" height="100" xmlns="http://www.w3.org/2000/svg" xmlns:xlink="http://www.w3.org/1999/xlink" version="1.1"><rect x="0" y="0" width="1920" height="100" fill="#0C1821"></rect><path d="M0 63L16 59.7C32 56.3 64 49.7 96 44.2C128 38.7 160 34.3 192 33.5C224 32.7 256 35.3 288 39.5C320 43.7 352 49.3 384 53.8C416 58.3 448 61.7 480 61.7C512 61.7 544 58.3 576 57.5C608 56.7 640 58.3 672 55.7C704 53 736 46 768 44.3C800 42.7 832 46.3 864 48.5C896 50.7 928 51.3 960 49.5C992 47.7 1024 43.3 1056 40.3C1088 37.3 1120 35.7 1152 37.2C1184 38.7 1216 43.3 1248 48.3C1280 53.3 1312 58.7 1344 57.7C1376 56.7 1408 49.3 1440 44.7C1472 40 1504 38 1536 38.2C1568 38.3 1600 40.7 1632 41.2C1664 41.7 1696 40.3 1728 45C1760 49.7 1792 60.3 1824 62.5C1856 64.7 1888 58.3 1904 55.2L1920 52L1920 0L1904 0C1888 0 1856 0 1824 0C1792 0 1760 0 1728 0C1696 0 1664 0 1632 0C1600 0 1568 0 1536 0C1504 0 1472 0 1440 0C1408 0 1376 0 1344 0C1312 0 1280 0 1248 0C1216 0 1184 0 1152 0C1120 0 1088 0 1056 0C1024 0 992 0 960 0C928 0 896 0 864 0C832 0 800 0 768 0C736 0 704 0 672 0C640 0 608 0 576 0C544 0 512 0 480 0C448 0 416 0 384 0C352 0 320 0 288 0C256 0 224 0 192 0C160 0 128 0 96 0C64 0 32 0 16 0L0 0Z" fill="#0A0600" stroke-linecap="round" stroke-linejoin="miter"></path></svg>