<?xml version="1.0" standalone="no"?>
<svg xmlns:xlink="http://www.w3.org/1999/xlink" id="wave" style="transform:rotate(0deg); transition: 0.3s" viewBox="0 0 1440 100" version="1.1" xmlns="http://www.w3.org/2000/svg"><defs><linearGradient id="sw-gradient-0" x1="0" x2="0" y1="1" y2="0"><stop stop-color="rgba(255, 252, 247, 1)" offset="0%"/><stop stop-color="rgba(255, 252, 247, 1)" offset="100%"/></linearGradient></defs><path style="transform:translate(0, 0px); opacity:1" fill="url(#sw-gradient-0)" d="M0,50L24,43.3C48,37,96,23,144,28.3C192,33,240,57,288,60C336,63,384,47,432,40C480,33,528,37,576,35C624,33,672,27,720,26.7C768,27,816,33,864,31.7C912,30,960,20,1008,15C1056,10,1104,10,1152,20C1200,30,1248,50,1296,50C1344,50,1392,30,1440,23.3C1488,17,1536,23,1584,23.3C1632,23,1680,17,1728,21.7C1776,27,1824,43,1872,56.7C1920,70,1968,80,2016,83.3C2064,87,2112,83,2160,73.3C2208,63,2256,47,2304,36.7C2352,27,2400,23,2448,20C2496,17,2544,13,2592,18.3C2640,23,2688,37,2736,36.7C2784,37,2832,23,2880,15C2928,7,2976,3,3024,1.7C3072,0,3120,0,3168,6.7C3216,13,3264,27,3312,41.7C3360,57,3408,73,3432,81.7L3456,90L3456,100L3432,100C3408,100,3360,100,3312,100C3264,100,3216,100,3168,100C3120,100,3072,100,3024,100C2976,100,2928,100,2880,100C2832,100,2784,100,2736,100C2688,100,2640,100,2592,100C2544,100,2496,100,2448,100C2400,100,2352,100,2304,100C2256,100,2208,100,2160,100C2112,100,2064,100,2016,100C1968,100,1920,100,1872,100C1824,100,1776,100,1728,100C1680,100,1632,100,1584,100C1536,100,1488,100,1440,100C1392,100,1344,100,1296,100C1248,100,1200,100,1152,100C1104,100,1056,100,1008,100C960,100,912,100,864,100C816,100,768,100,720,100C672,100,624,100,576,100C528,100,480,100,432,100C384,100,336,100,288,100C240,100,192,100,144,100C96,100,48,100,24,100L0,100Z"/></svg>