<?xml version="1.0" standalone="no"?>
<svg xmlns:xlink="http://www.w3.org/1999/xlink" id="wave" style="transform:rotate(0deg); transition: 0.3s" viewBox="0 0 1440 100" version="1.1" xmlns="http://www.w3.org/2000/svg"><defs><linearGradient id="sw-gradient-0" x1="0" x2="0" y1="1" y2="0"><stop stop-color="rgba(12, 24, 33, 1)" offset="0%"/><stop stop-color="rgba(12, 24, 33, 1)" offset="100%"/></linearGradient></defs><path style="transform:translate(0, 0px); opacity:1" fill="url(#sw-gradient-0)" d="M0,40L15,41.7C30,43,60,47,90,53.3C120,60,150,70,180,68.3C210,67,240,53,270,46.7C300,40,330,40,360,40C390,40,420,40,450,36.7C480,33,510,27,540,28.3C570,30,600,40,630,46.7C660,53,690,57,720,61.7C750,67,780,73,810,63.3C840,53,870,27,900,20C930,13,960,27,990,40C1020,53,1050,67,1080,61.7C1110,57,1140,33,1170,25C1200,17,1230,23,1260,31.7C1290,40,1320,50,1350,45C1380,40,1410,20,1440,15C1470,10,1500,20,1530,23.3C1560,27,1590,23,1620,33.3C1650,43,1680,67,1710,78.3C1740,90,1770,90,1800,88.3C1830,87,1860,83,1890,73.3C1920,63,1950,47,1980,41.7C2010,37,2040,43,2070,40C2100,37,2130,23,2145,16.7L2160,10L2160,100L2145,100C2130,100,2100,100,2070,100C2040,100,2010,100,1980,100C1950,100,1920,100,1890,100C1860,100,1830,100,1800,100C1770,100,1740,100,1710,100C1680,100,1650,100,1620,100C1590,100,1560,100,1530,100C1500,100,1470,100,1440,100C1410,100,1380,100,1350,100C1320,100,1290,100,1260,100C1230,100,1200,100,1170,100C1140,100,1110,100,1080,100C1050,100,1020,100,990,100C960,100,930,100,900,100C870,100,840,100,810,100C780,100,750,100,720,100C690,100,660,100,630,100C600,100,570,100,540,100C510,100,480,100,450,100C420,100,390,100,360,100C330,100,300,100,270,100C240,100,210,100,180,100C150,100,120,100,90,100C60,100,30,100,15,100L0,100Z"/></svg>