<svg id="visual" viewBox="0 0 1920 100" width="1920" height="100" xmlns="http://www.w3.org/2000/svg" xmlns:xlink="http://www.w3.org/1999/xlink" version="1.1"><rect x="0" y="0" width="1920" height="100" fill="#FFFCF7"></rect><path d="M0 58L16 57.7C32 57.3 64 56.7 96 58.8C128 61 160 66 192 64.8C224 63.7 256 56.3 288 56.3C320 56.3 352 63.7 384 64.5C416 65.3 448 59.7 480 51.8C512 44 544 34 576 33.5C608 33 640 42 672 43.5C704 45 736 39 768 40.2C800 41.3 832 49.7 864 48.3C896 47 928 36 960 30.5C992 25 1024 25 1056 29.8C1088 34.7 1120 44.3 1152 50.8C1184 57.3 1216 60.7 1248 61.7C1280 62.7 1312 61.3 1344 59.7C1376 58 1408 56 1440 51.7C1472 47.3 1504 40.7 1536 41.7C1568 42.7 1600 51.3 1632 50.8C1664 50.3 1696 40.7 1728 40.8C1760 41 1792 51 1824 54.5C1856 58 1888 55 1904 53.5L1920 52L1920 101L1904 101C1888 101 1856 101 1824 101C1792 101 1760 101 1728 101C1696 101 1664 101 1632 101C1600 101 1568 101 1536 101C1504 101 1472 101 1440 101C1408 101 1376 101 1344 101C1312 101 1280 101 1248 101C1216 101 1184 101 1152 101C1120 101 1088 101 1056 101C1024 101 992 101 960 101C928 101 896 101 864 101C832 101 800 101 768 101C736 101 704 101 672 101C640 101 608 101 576 101C544 101 512 101 480 101C448 101 416 101 384 101C352 101 320 101 288 101C256 101 224 101 192 101C160 101 128 101 96 101C64 101 32 101 16 101L0 101Z" fill="#DDE9F3" stroke-linecap="round" stroke-linejoin="miter"></path></svg>