<svg id="visual" viewBox="0 0 1920 100" width="1920" height="100" xmlns="http://www.w3.org/2000/svg" xmlns:xlink="http://www.w3.org/1999/xlink" version="1.1"><rect x="0" y="0" width="1920" height="100" fill="#0C1821"></rect><path d="M0 56L14.5 57.3C29 58.7 58 61.3 87.2 61.2C116.3 61 145.7 58 174.8 58C204 58 233 61 262 60.2C291 59.3 320 54.7 349 49.7C378 44.7 407 39.3 436.2 39.3C465.3 39.3 494.7 44.7 523.8 42.5C553 40.3 582 30.7 611 27.2C640 23.7 669 26.3 698 28.2C727 30 756 31 785.2 35C814.3 39 843.7 46 872.8 45.8C902 45.7 931 38.3 960 42.2C989 46 1018 61 1047.2 61.8C1076.3 62.7 1105.7 49.3 1134.8 44.7C1164 40 1193 44 1222 49C1251 54 1280 60 1309 60C1338 60 1367 54 1396.2 49.8C1425.3 45.7 1454.7 43.3 1483.8 46.7C1513 50 1542 59 1571 61.3C1600 63.7 1629 59.3 1658 55.5C1687 51.7 1716 48.3 1745.2 44.3C1774.3 40.3 1803.7 35.7 1832.8 40.3C1862 45 1891 59 1905.5 66L1920 73L1920 101L1905.5 101C1891 101 1862 101 1832.8 101C1803.7 101 1774.3 101 1745.2 101C1716 101 1687 101 1658 101C1629 101 1600 101 1571 101C1542 101 1513 101 1483.8 101C1454.7 101 1425.3 101 1396.2 101C1367 101 1338 101 1309 101C1280 101 1251 101 1222 101C1193 101 1164 101 1134.8 101C1105.7 101 1076.3 101 1047.2 101C1018 101 989 101 960 101C931 101 902 101 872.8 101C843.7 101 814.3 101 785.2 101C756 101 727 101 698 101C669 101 640 101 611 101C582 101 553 101 523.8 101C494.7 101 465.3 101 436.2 101C407 101 378 101 349 101C320 101 291 101 262 101C233 101 204 101 174.8 101C145.7 101 116.3 101 87.2 101C58 101 29 101 14.5 101L0 101Z" fill="#3c9f4b" stroke-linecap="round" stroke-linejoin="miter"></path></svg>