<svg id="visual" viewBox="0 0 1920 100" width="1920" height="100" xmlns="http://www.w3.org/2000/svg" xmlns:xlink="http://www.w3.org/1999/xlink" version="1.1"><rect x="0" y="0" width="1920" height="100" fill="#0C1821"></rect><path d="M0 57L16 56.2C32 55.3 64 53.7 96 55.7C128 57.7 160 63.3 192 60.5C224 57.7 256 46.3 288 41.8C320 37.3 352 39.7 384 41.3C416 43 448 44 480 41.7C512 39.3 544 33.7 576 37C608 40.3 640 52.7 672 55.2C704 57.7 736 50.3 768 47.8C800 45.3 832 47.7 864 44.7C896 41.7 928 33.3 960 30.5C992 27.7 1024 30.3 1056 32.7C1088 35 1120 37 1152 42.2C1184 47.3 1216 55.7 1248 55.8C1280 56 1312 48 1344 48.5C1376 49 1408 58 1440 62.7C1472 67.3 1504 67.7 1536 64.7C1568 61.7 1600 55.3 1632 48.7C1664 42 1696 35 1728 39C1760 43 1792 58 1824 64.8C1856 71.7 1888 70.3 1904 69.7L1920 69L1920 101L1904 101C1888 101 1856 101 1824 101C1792 101 1760 101 1728 101C1696 101 1664 101 1632 101C1600 101 1568 101 1536 101C1504 101 1472 101 1440 101C1408 101 1376 101 1344 101C1312 101 1280 101 1248 101C1216 101 1184 101 1152 101C1120 101 1088 101 1056 101C1024 101 992 101 960 101C928 101 896 101 864 101C832 101 800 101 768 101C736 101 704 101 672 101C640 101 608 101 576 101C544 101 512 101 480 101C448 101 416 101 384 101C352 101 320 101 288 101C256 101 224 101 192 101C160 101 128 101 96 101C64 101 32 101 16 101L0 101Z" fill="#0A0600" stroke-linecap="round" stroke-linejoin="miter"></path></svg>