<svg id="visual" viewBox="0 0 1920 100" width="1920" height="100" xmlns="http://www.w3.org/2000/svg" xmlns:xlink="http://www.w3.org/1999/xlink" version="1.1"><rect x="0" y="0" width="1920" height="100" fill="#FFFCF7"></rect><path d="M0 37L13.8 37.8C27.7 38.7 55.3 40.3 83.2 42.5C111 44.7 139 47.3 166.8 48.8C194.7 50.3 222.3 50.7 250.2 52.5C278 54.3 306 57.7 333.8 58.2C361.7 58.7 389.3 56.3 417.2 51.3C445 46.3 473 38.7 500.8 34.5C528.7 30.3 556.3 29.7 584.2 28.5C612 27.3 640 25.7 667.8 31C695.7 36.3 723.3 48.7 751.2 50.5C779 52.3 807 43.7 834.8 41.8C862.7 40 890.3 45 918.2 46.7C946 48.3 974 46.7 1001.8 44.2C1029.7 41.7 1057.3 38.3 1085.2 35.7C1113 33 1141 31 1168.8 30.2C1196.7 29.3 1224.3 29.7 1252.2 31C1280 32.3 1308 34.7 1335.8 39.7C1363.7 44.7 1391.3 52.3 1419.2 50.7C1447 49 1475 38 1502.8 36.5C1530.7 35 1558.3 43 1586.2 48C1614 53 1642 55 1669.8 53.8C1697.7 52.7 1725.3 48.3 1753.2 50C1781 51.7 1809 59.3 1836.8 63.3C1864.7 67.3 1892.3 67.7 1906.2 67.8L1920 68L1920 101L1906.2 101C1892.3 101 1864.7 101 1836.8 101C1809 101 1781 101 1753.2 101C1725.3 101 1697.7 101 1669.8 101C1642 101 1614 101 1586.2 101C1558.3 101 1530.7 101 1502.8 101C1475 101 1447 101 1419.2 101C1391.3 101 1363.7 101 1335.8 101C1308 101 1280 101 1252.2 101C1224.3 101 1196.7 101 1168.8 101C1141 101 1113 101 1085.2 101C1057.3 101 1029.7 101 1001.8 101C974 101 946 101 918.2 101C890.3 101 862.7 101 834.8 101C807 101 779 101 751.2 101C723.3 101 695.7 101 667.8 101C640 101 612 101 584.2 101C556.3 101 528.7 101 500.8 101C473 101 445 101 417.2 101C389.3 101 361.7 101 333.8 101C306 101 278 101 250.2 101C222.3 101 194.7 101 166.8 101C139 101 111 101 83.2 101C55.3 101 27.7 101 13.8 101L0 101Z" fill="#62c370" stroke-linecap="round" stroke-linejoin="miter"></path></svg>