<?xml version="1.0" encoding="UTF-8" standalone="no"?>
<svg
   id="visual"
   viewBox="0 0 612.69897 631.32"
   width="612.69897"
   height="631.32001"
   version="1.1"
   sodipodi:docname="blob__layer2.svg"
   inkscape:version="1.3.2 (091e20e, 2023-11-25, custom)"
   xmlns:inkscape="http://www.inkscape.org/namespaces/inkscape"
   xmlns:sodipodi="http://sodipodi.sourceforge.net/DTD/sodipodi-0.dtd"
   xmlns="http://www.w3.org/2000/svg"
   xmlns:svg="http://www.w3.org/2000/svg">
  <defs
     id="defs1" />
  <sodipodi:namedview
     id="namedview1"
     pagecolor="#ffffff"
     bordercolor="#000000"
     borderopacity="0.25"
     inkscape:showpageshadow="2"
     inkscape:pageopacity="0.0"
     inkscape:pagecheckerboard="0"
     inkscape:deskcolor="#d1d1d1"
     inkscape:zoom="0.83045763"
     inkscape:cx="440.11878"
     inkscape:cy="281.17027"
     inkscape:window-width="1920"
     inkscape:window-height="1009"
     inkscape:window-x="-8"
     inkscape:window-y="-8"
     inkscape:window-maximized="1"
     inkscape:current-layer="visual" />
  <g
     transform="rotate(-138,221.56178,86.999538)"
     id="g1">
    <path
       d="m 172.8,-237.7 c 56.7,5.3 112,43.8 121.3,94.5 9.2,50.6 -27.6,113.4 -42,176 -14.4,62.6 -6.3,124.9 -30.9,165.9 -24.6,41.1 -81.9,60.8 -141.8,84.1 -60,23.3 -122.5,50.1 -167.9,31.1 -45.4,-19 -73.7,-83.9 -115.3,-135.4 -41.6,-51.5 -96.6,-89.4 -119.1,-141.7 -22.5,-52.3 -12.6,-118.9 14.8,-176.9 27.4,-58 72.3,-107.4 126.6,-113.9 54.3,-6.5 117.9,30 178.7,34.4 60.8,4.3 118.9,-23.5 175.6,-18.1"
       fill="#2046df"
       id="path1" />
  </g>
</svg>
